<?xml version="1.0" standalone="no"?>
<!DOCTYPE svg PUBLIC "-//W3C//DTD SVG 20010904//EN"
 "http://www.w3.org/TR/2001/REC-SVG-20010904/DTD/svg10.dtd">
<svg version="1.0" xmlns="http://www.w3.org/2000/svg"
 width="645.000000pt" height="645.000000pt" viewBox="0 0 645.000000 645.000000"
 preserveAspectRatio="xMidYMid meet">
<metadata>
Created by potrace 1.11, written by Peter Selinger 2001-2013
</metadata>
<g transform="translate(0.000000,645.000000) scale(0.100000,-0.100000)"
fill="#000000" stroke="none">
<path d="M3197 5928 c-14 -24 -35 -61 -47 -83 -12 -22 -64 -112 -115 -200 -50
-88 -172 -299 -270 -470 -98 -170 -188 -326 -200 -345 -12 -19 -25 -42 -28
-50 -4 -8 -17 -31 -28 -50 -25 -42 -204 -350 -232 -400 -10 -19 -43 -75 -72
-125 -29 -49 -61 -106 -72 -125 -11 -19 -64 -111 -118 -205 -54 -93 -106 -183
-115 -200 l-17 -30 -274 -5 -274 -5 60 -36 c33 -20 124 -73 202 -118 l143 -83
-27 -46 c-15 -26 -44 -75 -65 -110 -21 -34 -38 -64 -38 -66 0 -2 -41 -75 -91
-162 -51 -88 -101 -175 -112 -194 -10 -19 -43 -75 -72 -125 -29 -49 -61 -106
-72 -125 -11 -19 -64 -111 -118 -205 -54 -93 -106 -183 -115 -200 -66 -115
-217 -376 -235 -405 -12 -19 -25 -42 -28 -50 -4 -8 -15 -28 -26 -45 -10 -16
-45 -77 -78 -135 -33 -58 -103 -179 -155 -270 -53 -91 -107 -185 -121 -210
-14 -25 -47 -83 -74 -130 l-50 -85 1479 -3 1478 -2 0 -238 c1 -269 -5 -261 80
-112 26 47 82 144 123 215 l76 130 1344 5 1345 5 -75 130 c-42 72 -118 204
-171 295 -52 91 -106 185 -120 210 -14 25 -44 77 -67 115 -22 39 -44 77 -48
85 -4 8 -15 29 -26 45 -27 44 -204 352 -236 410 -15 28 -31 55 -35 60 -4 6
-59 100 -122 210 -63 110 -159 277 -213 370 -54 94 -109 190 -123 215 -14 25
-44 77 -67 116 l-42 70 134 229 c73 127 133 233 133 237 0 4 -122 9 -272 10
l-271 3 -17 30 c-9 17 -61 107 -115 200 -54 94 -106 184 -115 200 -18 31 -100
174 -265 460 -54 94 -109 190 -123 215 -13 25 -28 50 -32 55 -7 9 -163 279
-217 375 -11 19 -64 112 -118 205 -54 94 -108 188 -121 210 -12 22 -49 86 -83
143 -34 57 -61 105 -61 107 0 5 -72 125 -75 125 -2 0 -14 -19 -28 -42z m123
-1053 c34 -60 97 -168 138 -240 41 -71 126 -218 187 -325 119 -207 428 -742
833 -1445 41 -71 86 -150 100 -175 13 -25 28 -49 32 -55 4 -5 69 -118 145
-250 76 -132 172 -298 213 -370 41 -71 116 -202 167 -290 50 -88 124 -216 164
-284 39 -68 71 -125 69 -126 -2 -2 -46 21 -99 51 l-97 54 -64 113 c-50 87
-282 489 -396 687 -9 16 -72 59 -158 108 l-143 83 35 62 c19 34 40 72 46 84 9
19 -6 50 -113 235 -67 117 -144 251 -170 298 -25 47 -86 153 -134 235 -48 83
-108 187 -134 232 l-46 83 -97 0 -98 0 0 166 0 165 -177 307 c-97 169 -203
352 -235 406 l-58 100 0 120 c0 138 -7 141 90 -29z m-103 -1232 c-2 -2 -150
-2 -329 -1 l-326 3 90 155 c89 151 410 706 512 884 l51 90 3 -564 c1 -310 1
-565 -1 -567z m-762 -658 c109 -63 199 -115 201 -115 2 0 47 -26 101 -58 113
-67 333 -195 410 -238 l53 -29 0 -562 0 -563 -492 0 -493 0 65 38 c36 21 99
58 141 83 l76 44 -229 400 c-126 220 -233 406 -237 414 -7 11 -36 -2 -142 -64
-74 -43 -138 -80 -143 -83 -5 -3 -7 -1 -4 4 13 22 201 346 301 519 60 105 127
220 149 258 21 37 40 67 42 67 2 0 93 -52 201 -115z m1850 -1070 c86 -49 331
-191 515 -298 47 -27 141 -81 210 -120 l125 -72 -327 -3 c-179 -1 -475 -1
-657 0 l-331 3 56 95 c31 52 99 169 151 260 52 91 102 175 109 188 17 26 6 29
149 -53z"/>
</g>
</svg>
